<?xml version="1.0" encoding="UTF-8"?>
<svg width="162px" height="166px" viewBox="0 0 162 166" version="1.1" xmlns="http://www.w3.org/2000/svg" xmlns:xlink="http://www.w3.org/1999/xlink">
    <title>Screenshot 1446-09-02 at 12.43.40 PM</title>
    <g id="Hi-fi" stroke="none" stroke-width="1" fill="none" fill-rule="evenodd">
        <g id="Icons" transform="translate(-1029, -1748)" fill="#999999" fill-rule="nonzero">
            <g id="Screenshot-1446-09-02-at-12.43.40-PM" transform="translate(1029, 1748)">
                <path d="M72.2237663,150.361049 C72.9963116,151.306726 73.8395419,152.092597 74.8798973,152.705424 C75.6875962,153.181183 76.2004896,153.880651 76.8133823,154.501339 C77.969569,155.672232 79.6334797,156.382731 80.6615779,157.824631 C81.7298916,156.994224 82.7614797,156.284147 83.6668206,155.470757 C86.0211812,153.355534 88.3577457,151.230153 90.925988,149.297447 C91.7646419,148.666335 92.3561174,147.787085 93.2166124,147.185276 C95.3168608,145.716359 97.079885,143.947079 98.9839636,142.322834 C101.005692,140.598222 103.07725,138.892793 105.013362,137.078462 C107.6491,134.608525 110.504737,132.310825 113.272916,129.945153 C115.659842,127.905276 118.060489,125.877223 120.447469,123.837411 C122.974364,121.678023 125.469925,119.491287 128.019986,117.352284 C131.020152,114.83575 134.070178,112.351201 136.752457,109.585855 C139.311269,106.947789 141.681839,104.172892 143.74802,101.219058 C145.736112,98.3768613 147.456132,95.3999207 148.80563,92.3195543 C149.757288,90.1472847 150.655926,87.9230809 151.341237,85.656574 C151.773885,84.2257256 152.321062,82.8194175 152.719072,81.3821879 C152.910503,80.6909109 152.826744,79.9472636 152.951011,79.2380787 C153.891468,73.8715003 153.947538,68.4592235 153.480269,63.0845927 C153.295693,60.9614633 152.986389,58.7748725 152.457332,56.6275331 C151.505181,52.763079 149.96382,49.0758305 148.455894,45.3816327 C147.809288,43.7975048 146.670975,42.3175757 145.848099,40.7749187 C144.693037,38.6094993 143.137854,36.6830093 141.705106,34.6806195 C140.770566,33.3745302 139.669972,32.168029 138.568439,30.953436 C136.949435,29.1682592 135.197751,27.4903397 133.427917,25.8349261 C131.767604,24.2819377 129.914026,22.8584778 127.995194,21.5386321 C126.627761,20.5980547 125.350589,19.5689902 123.928286,18.6742598 C119.41082,15.8324331 114.553902,13.4610272 109.409197,11.6640327 C105.995629,10.4717042 102.502269,9.31294598 98.8368612,8.63904693 C96.4351896,8.19748994 94.0047431,7.98126115 91.5993734,7.60929888 C88.3908732,7.11314046 85.1715488,6.8141252 81.9110614,6.73933832 C80.2434683,6.70108782 78.6108286,4.82011137 78.7264363,3.18029217 C78.9014352,0.698164313 81.1815747,-0.122543905 83.2513455,0.0144491739 C84.0049847,0.0643307598 84.7608351,0.0918352662 85.5161384,0.120464698 C88.1697037,0.2210385 90.7816514,0.592079306 93.4084373,0.897953002 C94.9682037,1.07957924 96.4985637,1.40486716 98.0703176,1.55393224 C100.02455,1.73926595 101.906973,2.36092836 103.813601,2.80604261 C105.984489,3.31285113 108.010616,4.12731522 110.151773,4.64032977 C112.827341,5.28138324 115.173497,6.49893412 117.653003,7.47996686 C121.558656,9.0252711 125.169989,11.017024 128.624743,13.1926922 C130.559122,14.4108888 132.39797,15.7618706 134.257126,17.0660838 C136.689021,18.772071 138.757359,20.7588316 140.934464,22.6442636 C143.642273,24.9892996 145.976973,27.6597173 148.097144,30.4263016 C149.821787,32.6767764 151.602946,34.9443634 152.871181,37.3903317 C154.375856,40.2923102 156.272885,43.0508784 157.176331,46.2083866 C157.692753,48.0132319 158.618617,49.7597816 159.19604,51.5808177 C159.92733,53.8870912 160.55463,56.2012651 160.857478,58.5912992 C161.157338,60.9575857 161.464593,63.3336487 161.710107,65.6958199 C161.993634,68.4239422 162.297592,71.2286053 161.41615,73.9618933 C161.339494,74.1996203 161.336504,74.4639423 161.353145,74.7132691 C161.533822,77.4212042 160.910606,80.094499 160.450316,82.7247177 C159.95961,85.5287463 158.998584,88.3208982 157.74303,91.0047488 C156.991787,92.6105964 156.678322,94.3555277 155.81483,95.9420667 C153.95552,99.3583547 152.075316,102.747889 149.769399,105.98429 C147.298182,109.452671 144.488632,112.697104 141.341132,115.673595 C139.429989,117.480911 137.506905,119.327386 135.363405,120.985927 C132.459449,123.232908 129.800622,125.712661 127.034045,128.090342 C123.087522,131.482083 119.142717,134.875304 115.189175,138.261021 C112.890831,140.229252 110.568211,142.176676 108.272216,144.146902 C105.85912,146.217589 103.331447,148.202744 101.015969,150.338973 C99.089872,152.115995 96.9510646,153.704727 95.0572324,155.518094 C93.6123264,156.901599 91.9336624,158.183177 90.3174634,159.472273 C88.3092483,161.073992 86.2964028,162.705992 84.5717453,164.524458 C82.9621024,166.22167 79.5018012,166.596017 77.6429764,164.8994 C74.9249202,162.418563 72.0125815,160.095088 69.225265,157.668894 C67.1770811,155.886046 64.9819565,154.219234 63.0235485,152.376868 C61.0814885,150.549907 58.9882741,148.845231 56.9776784,147.091461 C54.8477692,145.233651 52.7053099,143.359538 50.4829629,141.565856 C47.6535436,139.282188 44.9504601,136.883368 42.1961712,134.531383 C39.7393959,132.433441 37.1584226,130.428442 34.8766575,128.198571 C33.273621,126.631981 31.4377084,125.269271 29.7549494,123.791885 C28.168446,122.399026 26.5277514,120.9896 24.874461,119.628964 C22.7202626,117.856117 20.7212945,115.924151 18.7448336,113.983016 C16.3707927,111.65139 14.3848463,109.098286 12.3606934,106.568541 C10.9578847,104.815352 9.80506469,102.902239 8.68681013,100.997462 C6.9175871,97.9838465 5.14710258,94.9293414 4.08534519,91.695352 C3.38454671,89.5607879 2.53925439,87.4420909 2.01650946,85.2398645 C1.64215313,83.6627848 1.11312021,82.0686493 0.796722974,80.4738862 C0.52553721,79.1070209 0.138819241,77.7205233 0.140820399,76.3334444 C0.147425708,71.7550624 -0.181120853,67.1738135 0.143517304,62.6002537 C0.251093348,61.0847131 0.693371652,59.5775486 0.966027422,58.0713817 C1.24088454,56.5530533 1.80754513,55.1151237 2.18014771,53.630062 C2.55155216,52.1497697 3.37966032,50.7499484 3.70615195,49.2660889 C4.12251189,47.3737969 5.16998677,45.7129037 5.96620364,43.964478 C7.8590872,39.8078522 10.3352674,35.8878573 13.1029672,32.123153 C14.740834,29.8952798 16.6193313,27.7796346 18.578215,25.747149 C21.7415633,22.4649575 25.148427,19.4072191 29.1505428,16.8004243 C32.121791,14.8650826 35.3155031,13.3015812 38.5016767,11.7055993 C39.8069649,11.0517703 41.3771357,10.836169 42.7996998,10.3398801 C45.1288913,9.52729203 47.5934786,8.86816031 50.0549381,8.68871553 C52.356695,8.52091178 54.6991107,7.94279592 57.0521656,8.4711986 C57.412379,8.55208913 57.8025921,8.5611539 58.1786722,8.55949238 C60.9865354,8.54709352 63.6698,9.0547012 66.3440201,9.77496744 C69.3111272,10.5741194 72.2634426,11.3871269 74.9863835,12.6841332 C77.7812421,14.0153936 80.4942062,15.4511995 83.0329108,17.1475061 C84.3416543,18.0219798 85.7272925,18.8762897 86.8963606,19.8377182 C88.4728681,21.1342026 90.3408838,22.2136853 91.5610532,23.8196749 C92.2931439,24.7832798 93.4373353,25.2958751 94.6221736,25.5651908 C97.0317496,26.1128856 99.2401176,27.12424 101.590133,27.7280999 C104.778294,28.5473235 107.458639,30.13811 110.204931,31.5570284 C113.115036,33.0605862 115.70938,35.0299837 118.162137,37.1123227 C120.845217,39.3901849 123.364392,41.8502993 125.230605,44.5756009 C127.107696,47.3168026 129.216141,50.0263232 130.169802,53.2609797 C130.754791,55.2451114 131.583553,57.2349171 132.425813,59.1862645 C132.726026,59.8817757 132.854223,60.6770732 132.92772,61.3473901 C133.076486,62.7043997 133.664295,63.9905957 133.60411,65.3818626 C133.503017,67.7179082 133.548594,70.0598987 133.58767,72.3987121 C133.617731,74.1977311 132.967812,75.9026185 132.720541,77.6476092 C132.497168,79.2238564 131.806572,80.6684912 131.554586,82.2110821 C131.397144,83.1746938 130.662573,83.9374249 130.409431,84.898546 C129.553027,88.1500539 127.439435,90.9417564 125.473931,93.7401505 C123.714836,96.2446622 121.555343,98.5143003 119.112154,100.620671 C116.995149,102.445822 114.950964,104.354391 112.77775,106.130911 C109.782908,108.579089 106.941139,111.158945 103.95011,113.611721 C101.788645,115.384224 99.680292,117.248389 97.6165918,119.129544 C95.1255292,121.400265 92.556116,123.613081 89.9185135,125.75869 C87.763774,127.511508 85.6630171,129.305414 83.6364587,131.163594 C82.5155029,132.19142 79.3428653,132.30023 78.1207315,131.175537 C76.8604084,130.015703 75.5077821,128.929746 74.1989463,127.808528 C68.5475345,122.967317 62.912594,118.111864 57.2414902,113.287683 C53.392921,110.013867 49.6031074,106.690667 45.6869923,103.472591 C43.1347747,101.37531 40.6888774,99.1292677 38.5791952,96.7043552 C36.3332044,94.1227414 34.4078701,91.3322413 32.8727492,88.3428225 C31.8853942,86.4200978 30.8273038,84.5305538 30.2863483,82.4846851 C29.8024491,80.6545992 29.0701928,78.8604089 28.7734688,77.0190274 C28.5643563,75.7213572 28.1575445,74.4330537 28.1403414,73.1154607 C28.1087813,70.6986865 27.9941981,68.2739987 28.1704065,65.8664064 C28.342971,63.508615 28.7151258,61.1606459 29.5043925,58.8620022 C29.7900456,58.0300694 30.1228746,57.1773152 30.2508902,56.2827534 C30.6376172,53.5802811 32.3814581,51.3148641 33.5903524,48.8723145 C34.8153522,46.3972379 36.6237303,44.2354188 38.5902083,42.2296533 C40.3042843,40.4813268 42.1467531,38.7557569 44.5117148,37.5230738 C45.9988857,36.7479206 47.3210611,35.7583023 48.959733,35.1632344 C51.9774563,34.0673859 55.0902945,33.104402 58.3649114,33.5211282 C61.0736303,33.8658385 63.6988293,34.5624231 65.9382986,36.2306849 C67.8816064,37.6783284 69.3964194,39.34228 70.3908276,41.2743188 C71.8438844,44.0974779 72.6409672,47.0542641 71.5676381,50.199684 C71.2390347,51.1626415 71.2053601,52.2311654 71.0423565,53.2443465 C70.6774743,55.5121614 69.7805311,57.6336592 69.0958282,59.8149455 C68.7177876,61.0192503 68.7039588,62.2861114 68.2161421,63.4851448 C67.6745355,64.8163656 67.0917735,66.1687378 66.8673141,67.5524939 C66.6141878,69.1129469 66.023275,70.6011264 65.5545338,72.0845498 C64.9116487,74.1191097 65.1226028,76.2028491 64.5181227,78.2337362 C64.0840964,79.6919322 64.4128384,81.3176102 64.4059662,82.8685839 C64.3918215,86.0616377 64.9111481,89.1770079 66.0800849,92.222635 C66.608849,93.6003071 66.6217917,94.9755024 65.3883483,96.2043144 C63.7335053,97.8529077 60.0661407,97.6536521 59.0074417,95.6793698 C58.0628254,93.9178316 57.5073862,92.0224679 57.1667988,90.0743046 C56.7588893,87.7410864 56.8125253,85.3709156 56.2448943,83.0503078 C56.0256237,82.1538897 55.9865061,81.1817434 56.5180703,80.2917264 C56.6098224,80.1381101 56.6553383,79.9419198 56.6446489,79.7689154 C56.4755361,77.030726 57.2727342,74.3631254 57.4702561,71.6487233 C57.5737763,70.2261388 58.1793192,68.8261127 58.6044012,67.4262319 C59.0184356,66.0627355 59.4185023,64.6907904 59.9545081,63.3610296 C60.9279611,60.9460652 61.0969199,58.373726 62.0739322,55.951456 C62.6749682,54.4613078 62.6789591,52.7935447 63.2853803,51.3057218 C63.8629035,49.8888182 63.521704,48.4123636 64.0722243,46.9882334 C64.3466909,46.2782092 63.9329417,45.1761614 63.4153563,44.477585 C62.2715578,42.9338379 61.1979515,41.2744311 58.8188066,40.750266 C57.3888776,40.4352187 55.9535015,40.3965487 54.5905867,40.6336285 C51.0944267,41.2418055 48.4225872,43.1740754 46.0852139,45.2976936 C43.6047216,47.5513393 41.6980081,50.1949873 40.1287193,53.0358234 C38.8330767,55.381282 38.0513251,57.8114394 37.3320886,60.3051637 C36.3784545,63.6115984 35.7394486,66.9325852 35.8970785,70.3374519 C35.9859494,72.2570587 36.42679,74.1470586 36.7552472,76.0474161 C37.0684924,77.8598119 37.7341314,79.5845032 38.1647835,81.3636787 C38.6486594,83.3627193 40.0299295,85.0642311 41.0004162,86.9037831 C44.3663189,93.2838264 50.4990683,97.6843688 56.0497068,102.49666 C62.0334625,107.684448 68.0851184,112.814646 74.1060809,117.970898 C74.4556627,118.270283 74.7488657,118.63776 75.3327448,118.679416 C75.8030732,118.201848 75.5497928,117.639594 75.5716955,117.124664 C75.6130975,116.15185 75.4932984,115.168772 75.6076274,114.204532 C75.886085,111.856075 76.2157668,109.5124 76.2112293,107.147613 C76.2067377,104.806606 76.8691371,102.537946 77.4503351,100.290741 C78.1168948,97.7134738 79.0354098,95.1619822 79.726769,92.5961034 C80.4960705,89.7410056 81.6507627,87.0194429 82.7194228,84.2682533 C83.7487691,81.6182836 84.6278004,78.9104474 86.0347404,76.3781984 C87.1599027,74.3531113 87.6906775,72.1516841 88.7009713,70.0931718 C89.5645944,68.3335163 90.3978712,66.5577958 91.1092917,64.7500372 C91.6371543,63.4087098 91.8909355,62.0003671 92.4252771,60.6429942 C93.2651562,58.5094872 94.0136182,56.3213639 94.4441779,54.1054239 C94.8805771,51.8594607 95.1889882,49.5804559 95.0663001,47.2672266 C94.9374257,44.8373135 94.4894396,42.5056014 93.6538978,40.1673364 C92.6175332,37.267062 91.1785517,34.5463514 89.131169,32.1285831 C86.764343,29.3335975 84.0541293,26.7952613 80.8916305,24.5651354 C78.2976102,22.7358851 75.5923271,21.0996282 72.8024992,19.5239754 C70.756272,18.3682954 68.4675889,17.7282294 66.238936,16.9451031 C63.7285053,16.0629599 61.0670356,15.6094961 58.4242791,15.3057049 C56.3539496,15.0677202 54.1773806,14.9018369 52.0700558,15.513822 C50.978345,15.8308674 49.7929096,15.7313753 48.6364803,15.9863204 C46.7008262,16.4130442 44.8610732,17.0056049 43.0253338,17.6380248 C36.770405,19.7928815 31.6703569,23.3472756 27.1796542,27.5456464 C24.9693179,29.6120953 23.0034849,31.8718379 21.1494349,34.2116851 C19.133063,36.7563825 17.2141656,39.3557492 15.7701167,42.1385339 C14.3755381,44.8259913 12.5858768,47.4000414 11.7207438,50.2578013 C11.1174368,52.2506855 10.515873,54.2514965 9.80638221,56.2108236 C9.21564538,57.8421823 8.80865733,59.5161946 8.50903503,61.1627863 C8.23685361,62.6585823 7.74559806,64.1506395 7.81812444,65.7206114 C7.94291771,68.4219936 7.85109621,71.1306289 7.85647941,73.8362059 C7.8602467,75.7296209 8.49666203,77.5492037 8.75265723,79.4063069 C8.98322785,81.0789715 9.39816348,82.7205165 9.95052413,84.2940949 C11.1261135,87.6431298 12.0887884,91.0447994 13.8067165,94.2685831 C15.4318736,97.3182659 17.2270509,100.275019 19.2535495,103.121457 C20.1946126,104.443278 21.4549549,105.644332 22.4466395,106.931473 C23.6832668,108.536521 25.2989631,109.81736 26.6234982,111.324406 C27.3034745,112.098083 28.0469057,112.811568 28.9919459,113.357545 C29.8768363,113.868776 30.2801926,114.773366 31.0942129,115.323782 C33.2884321,116.807443 35.061148,118.666455 37.0363509,120.333254 C38.9181992,121.921286 40.8129252,123.531619 42.6583101,125.16342 C44.6998185,126.968662 46.8452014,128.713329 48.9223066,130.492901 C50.9089732,132.194974 52.9006978,133.915517 54.8873644,135.616296 C56.7255805,137.18998 58.5672752,138.791567 60.4193972,140.354867 C62.2978983,141.940415 64.185128,143.551052 66.0447308,145.162785 C68.049479,146.900344 69.8756152,148.808543 72.2237663,150.361049 M97.1448306,109.839899 C98.711477,108.611443 100.117,107.241586 101.59689,105.943044 C103.570082,104.211628 105.587188,102.505181 107.580226,100.797004 C109.452941,99.1919694 111.22578,97.485338 113.23314,95.9825731 C114.126578,95.3137292 114.622984,94.2647912 115.483226,93.5510944 C116.641384,92.590211 117.550624,91.4912745 118.374709,90.335383 C120.263264,87.6864701 122.077744,85.0095818 123.113962,81.9920359 C123.718642,80.2311847 124.393738,78.4941804 124.865923,76.6964363 C125.133887,75.6761606 125.124458,74.6182853 125.42954,73.6422945 C126.232848,71.072406 125.985484,68.4647592 125.686488,65.9321467 C125.386243,63.3887274 124.847433,60.8039891 123.787856,58.3725238 C123.065287,56.7144116 122.490669,55.0151459 121.715104,53.3691817 C120.941803,51.7280529 119.622683,50.3797234 118.745924,48.8167933 C117.916738,47.3386346 116.713495,46.1005017 115.524427,44.8745633 C112.602574,41.862117 109.329436,39.148415 105.371734,37.1267034 C104.196257,36.5262289 103.162712,35.7331574 101.883452,35.2750001 C101.557414,35.1582306 101.233479,35.0267964 100.944706,35.2375194 C100.654446,35.449319 100.657866,35.8386941 100.842835,36.0360371 C101.286653,36.5095526 101.336367,37.1022886 101.549271,37.6227214 C102.451923,39.829268 103.205069,42.0960458 103.258497,44.4473769 C103.326,47.4178108 103.449913,50.388205 102.840942,53.3564194 C102.620034,54.4331277 102.412516,55.546901 102.113835,56.5910761 C101.586882,58.4333163 100.941794,60.2663617 100.331983,62.0956747 C99.5481588,64.4470125 98.9380779,66.8605629 97.8265213,69.101955 C96.287756,72.2047941 95.3049195,75.4768061 93.6829422,78.546848 C92.4037211,80.9681205 91.474721,83.5041944 90.5333249,86.0288865 C89.6128221,88.4975289 88.2960819,90.8607042 87.7547063,93.4288487 C87.3209958,95.4862446 86.4582893,97.4472362 85.9770136,99.4999286 C85.7996651,100.256365 85.8439945,101.080747 85.4705917,101.785883 C84.4345583,103.742343 84.4653439,105.884821 84.1755999,107.926204 C83.6482998,111.641322 83.7784068,115.412114 83.8500244,119.162744 C83.857921,119.576409 83.692483,120.038044 84.1340825,120.377486 C84.4807674,120.441694 84.6814903,120.248304 84.9263117,120.110244 C86.4192141,119.268515 87.2880685,117.880716 88.6281753,116.939426 C90.8920822,115.34924 92.6216857,113.302308 94.9152918,111.749802 C95.6958107,111.221488 95.9945068,110.280818 97.1448306,109.839899 Z" id="Shape"></path>
            </g>
        </g>
    </g>
</svg>